<mxfile host="Electron" modified="2023-04-05T20:28:10.643Z" agent="Mozilla/5.0 (Windows NT 10.0; Win64; x64) AppleWebKit/537.36 (KHTML, like Gecko) draw.io/21.1.2 Chrome/106.0.5249.199 Electron/21.4.3 Safari/537.36" etag="JQoLIj7M5tBNgnU-Qvl0" version="21.1.2" type="device">
  <diagram id="C5RBs43oDa-KdzZeNtuy" name="Page-1">
    <mxGraphModel dx="2787" dy="2293" grid="1" gridSize="10" guides="1" tooltips="1" connect="1" arrows="1" fold="1" page="1" pageScale="1" pageWidth="827" pageHeight="1169" math="0" shadow="0">
      <root>
        <mxCell id="WIyWlLk6GJQsqaUBKTNV-0" />
        <mxCell id="WIyWlLk6GJQsqaUBKTNV-1" parent="WIyWlLk6GJQsqaUBKTNV-0" />
        <mxCell id="VRKwHfjSi7or-xDMxhOe-176" value="" style="rounded=1;whiteSpace=wrap;html=1;arcSize=7;fillColor=#CCE5FF;movable=1;resizable=1;rotatable=1;deletable=1;editable=1;locked=0;connectable=1;" vertex="1" parent="WIyWlLk6GJQsqaUBKTNV-1">
          <mxGeometry x="-410" y="-380" width="240" height="220" as="geometry" />
        </mxCell>
        <mxCell id="VRKwHfjSi7or-xDMxhOe-120" value="" style="rounded=1;whiteSpace=wrap;html=1;arcSize=7;fillColor=#CCE5FF;movable=1;resizable=1;rotatable=1;deletable=1;editable=1;locked=0;connectable=1;" vertex="1" parent="WIyWlLk6GJQsqaUBKTNV-1">
          <mxGeometry x="-90" y="-600" width="650" height="790" as="geometry" />
        </mxCell>
        <mxCell id="VRKwHfjSi7or-xDMxhOe-108" value="" style="rounded=1;whiteSpace=wrap;html=1;arcSize=7;fillColor=#CCE5FF;movable=1;resizable=1;rotatable=1;deletable=1;editable=1;locked=0;connectable=1;" vertex="1" parent="WIyWlLk6GJQsqaUBKTNV-1">
          <mxGeometry x="-560" y="-90" width="440" height="490" as="geometry" />
        </mxCell>
        <mxCell id="VRKwHfjSi7or-xDMxhOe-16" value="SignInProvider" style="swimlane;fontStyle=2;align=center;verticalAlign=top;childLayout=stackLayout;horizontal=1;startSize=26;horizontalStack=0;resizeParent=1;resizeLast=0;collapsible=1;marginBottom=0;rounded=0;shadow=0;strokeWidth=1;swimlaneFillColor=default;movable=1;resizable=1;rotatable=1;deletable=1;editable=1;locked=0;connectable=1;" vertex="1" parent="WIyWlLk6GJQsqaUBKTNV-1">
          <mxGeometry x="130" y="-580" width="120" height="190" as="geometry">
            <mxRectangle x="230" y="140" width="160" height="26" as="alternateBounds" />
          </mxGeometry>
        </mxCell>
        <mxCell id="VRKwHfjSi7or-xDMxhOe-26" value="State:" style="text;align=left;verticalAlign=top;spacingLeft=4;spacingRight=4;overflow=hidden;rotatable=1;points=[[0,0.5],[1,0.5]];portConstraint=eastwest;rounded=0;shadow=0;html=0;movable=1;resizable=1;deletable=1;editable=1;locked=0;connectable=1;" vertex="1" parent="VRKwHfjSi7or-xDMxhOe-16">
          <mxGeometry y="26" width="120" height="26" as="geometry" />
        </mxCell>
        <mxCell id="VRKwHfjSi7or-xDMxhOe-17" value="    data" style="text;align=left;verticalAlign=top;spacingLeft=4;spacingRight=4;overflow=hidden;rotatable=1;points=[[0,0.5],[1,0.5]];portConstraint=eastwest;rounded=0;shadow=0;html=0;movable=1;resizable=1;deletable=1;editable=1;locked=0;connectable=1;" vertex="1" parent="VRKwHfjSi7or-xDMxhOe-16">
          <mxGeometry y="52" width="120" height="26" as="geometry" />
        </mxCell>
        <mxCell id="VRKwHfjSi7or-xDMxhOe-18" value="    user" style="text;align=left;verticalAlign=top;spacingLeft=4;spacingRight=4;overflow=hidden;rotatable=1;points=[[0,0.5],[1,0.5]];portConstraint=eastwest;rounded=0;shadow=0;html=0;movable=1;resizable=1;deletable=1;editable=1;locked=0;connectable=1;" vertex="1" parent="VRKwHfjSi7or-xDMxhOe-16">
          <mxGeometry y="78" width="120" height="26" as="geometry" />
        </mxCell>
        <mxCell id="VRKwHfjSi7or-xDMxhOe-19" value="" style="line;html=1;strokeWidth=1;align=left;verticalAlign=middle;spacingTop=-1;spacingLeft=3;spacingRight=3;rotatable=1;labelPosition=right;points=[];portConstraint=eastwest;movable=1;resizable=1;deletable=1;editable=1;locked=0;connectable=1;" vertex="1" parent="VRKwHfjSi7or-xDMxhOe-16">
          <mxGeometry y="104" width="120" height="8" as="geometry" />
        </mxCell>
        <mxCell id="VRKwHfjSi7or-xDMxhOe-20" value="fetchUser()" style="text;align=left;verticalAlign=top;spacingLeft=4;spacingRight=4;overflow=hidden;rotatable=1;points=[[0,0.5],[1,0.5]];portConstraint=eastwest;rounded=0;shadow=0;html=0;movable=1;resizable=1;deletable=1;editable=1;locked=0;connectable=1;" vertex="1" parent="VRKwHfjSi7or-xDMxhOe-16">
          <mxGeometry y="112" width="120" height="26" as="geometry" />
        </mxCell>
        <mxCell id="VRKwHfjSi7or-xDMxhOe-21" value="fetchData()" style="text;align=left;verticalAlign=top;spacingLeft=4;spacingRight=4;overflow=hidden;rotatable=1;points=[[0,0.5],[1,0.5]];portConstraint=eastwest;rounded=0;shadow=0;html=0;movable=1;resizable=1;deletable=1;editable=1;locked=0;connectable=1;" vertex="1" parent="VRKwHfjSi7or-xDMxhOe-16">
          <mxGeometry y="138" width="120" height="26" as="geometry" />
        </mxCell>
        <mxCell id="VRKwHfjSi7or-xDMxhOe-27" value="render()" style="text;align=left;verticalAlign=top;spacingLeft=4;spacingRight=4;overflow=hidden;rotatable=1;points=[[0,0.5],[1,0.5]];portConstraint=eastwest;rounded=0;shadow=0;html=0;movable=1;resizable=1;deletable=1;editable=1;locked=0;connectable=1;" vertex="1" parent="VRKwHfjSi7or-xDMxhOe-16">
          <mxGeometry y="164" width="120" height="26" as="geometry" />
        </mxCell>
        <mxCell id="VRKwHfjSi7or-xDMxhOe-22" value="HomePage" style="swimlane;fontStyle=2;align=center;verticalAlign=top;childLayout=stackLayout;horizontal=1;startSize=26;horizontalStack=0;resizeParent=1;resizeLast=0;collapsible=1;marginBottom=0;rounded=0;shadow=0;strokeWidth=1;swimlaneFillColor=default;movable=1;resizable=1;rotatable=1;deletable=1;editable=1;locked=0;connectable=1;" vertex="1" parent="WIyWlLk6GJQsqaUBKTNV-1">
          <mxGeometry x="130" y="-350" width="120" height="242" as="geometry">
            <mxRectangle x="230" y="140" width="160" height="26" as="alternateBounds" />
          </mxGeometry>
        </mxCell>
        <mxCell id="VRKwHfjSi7or-xDMxhOe-23" value="Provided Props:" style="text;align=left;verticalAlign=top;spacingLeft=4;spacingRight=4;overflow=hidden;rotatable=1;points=[[0,0.5],[1,0.5]];portConstraint=eastwest;movable=1;resizable=1;deletable=1;editable=1;locked=0;connectable=1;" vertex="1" parent="VRKwHfjSi7or-xDMxhOe-22">
          <mxGeometry y="26" width="120" height="26" as="geometry" />
        </mxCell>
        <mxCell id="VRKwHfjSi7or-xDMxhOe-24" value="    data" style="text;align=left;verticalAlign=top;spacingLeft=4;spacingRight=4;overflow=hidden;rotatable=1;points=[[0,0.5],[1,0.5]];portConstraint=eastwest;rounded=0;shadow=0;html=0;movable=1;resizable=1;deletable=1;editable=1;locked=0;connectable=1;" vertex="1" parent="VRKwHfjSi7or-xDMxhOe-22">
          <mxGeometry y="52" width="120" height="26" as="geometry" />
        </mxCell>
        <mxCell id="VRKwHfjSi7or-xDMxhOe-25" value="    user" style="text;align=left;verticalAlign=top;spacingLeft=4;spacingRight=4;overflow=hidden;rotatable=1;points=[[0,0.5],[1,0.5]];portConstraint=eastwest;rounded=0;shadow=0;html=0;movable=1;resizable=1;deletable=1;editable=1;locked=0;connectable=1;" vertex="1" parent="VRKwHfjSi7or-xDMxhOe-22">
          <mxGeometry y="78" width="120" height="26" as="geometry" />
        </mxCell>
        <mxCell id="VRKwHfjSi7or-xDMxhOe-28" value="State:" style="text;align=left;verticalAlign=top;spacingLeft=4;spacingRight=4;overflow=hidden;rotatable=1;points=[[0,0.5],[1,0.5]];portConstraint=eastwest;rounded=0;shadow=0;html=0;movable=1;resizable=1;deletable=1;editable=1;locked=0;connectable=1;" vertex="1" parent="VRKwHfjSi7or-xDMxhOe-22">
          <mxGeometry y="104" width="120" height="26" as="geometry" />
        </mxCell>
        <mxCell id="VRKwHfjSi7or-xDMxhOe-30" value="    user" style="text;align=left;verticalAlign=top;spacingLeft=4;spacingRight=4;overflow=hidden;rotatable=1;points=[[0,0.5],[1,0.5]];portConstraint=eastwest;rounded=0;shadow=0;html=0;movable=1;resizable=1;deletable=1;editable=1;locked=0;connectable=1;" vertex="1" parent="VRKwHfjSi7or-xDMxhOe-22">
          <mxGeometry y="130" width="120" height="26" as="geometry" />
        </mxCell>
        <mxCell id="VRKwHfjSi7or-xDMxhOe-29" value="    data" style="text;align=left;verticalAlign=top;spacingLeft=4;spacingRight=4;overflow=hidden;rotatable=1;points=[[0,0.5],[1,0.5]];portConstraint=eastwest;rounded=0;shadow=0;html=0;movable=1;resizable=1;deletable=1;editable=1;locked=0;connectable=1;" vertex="1" parent="VRKwHfjSi7or-xDMxhOe-22">
          <mxGeometry y="156" width="120" height="26" as="geometry" />
        </mxCell>
        <mxCell id="VRKwHfjSi7or-xDMxhOe-31" value="" style="line;html=1;strokeWidth=1;align=left;verticalAlign=middle;spacingTop=-1;spacingLeft=3;spacingRight=3;rotatable=1;labelPosition=right;points=[];portConstraint=eastwest;movable=1;resizable=1;deletable=1;editable=1;locked=0;connectable=1;" vertex="1" parent="VRKwHfjSi7or-xDMxhOe-22">
          <mxGeometry y="182" width="120" height="8" as="geometry" />
        </mxCell>
        <mxCell id="VRKwHfjSi7or-xDMxhOe-32" value="logger()" style="text;align=left;verticalAlign=top;spacingLeft=4;spacingRight=4;overflow=hidden;rotatable=1;points=[[0,0.5],[1,0.5]];portConstraint=eastwest;rounded=0;shadow=0;html=0;movable=1;resizable=1;deletable=1;editable=1;locked=0;connectable=1;" vertex="1" parent="VRKwHfjSi7or-xDMxhOe-22">
          <mxGeometry y="190" width="120" height="26" as="geometry" />
        </mxCell>
        <mxCell id="VRKwHfjSi7or-xDMxhOe-175" value="render()" style="text;align=left;verticalAlign=top;spacingLeft=4;spacingRight=4;overflow=hidden;rotatable=1;points=[[0,0.5],[1,0.5]];portConstraint=eastwest;rounded=0;shadow=0;html=0;movable=1;resizable=1;deletable=1;editable=1;locked=0;connectable=1;" vertex="1" parent="VRKwHfjSi7or-xDMxhOe-22">
          <mxGeometry y="216" width="120" height="26" as="geometry" />
        </mxCell>
        <mxCell id="VRKwHfjSi7or-xDMxhOe-33" value="SettingsPage" style="swimlane;fontStyle=2;align=center;verticalAlign=top;childLayout=stackLayout;horizontal=1;startSize=26;horizontalStack=0;resizeParent=1;resizeLast=0;collapsible=1;marginBottom=0;rounded=0;shadow=0;strokeWidth=1;swimlaneFillColor=default;movable=1;resizable=1;rotatable=1;deletable=1;editable=1;locked=0;connectable=1;" vertex="1" parent="WIyWlLk6GJQsqaUBKTNV-1">
          <mxGeometry x="420" y="-50" width="120" height="216" as="geometry">
            <mxRectangle x="230" y="140" width="160" height="26" as="alternateBounds" />
          </mxGeometry>
        </mxCell>
        <mxCell id="VRKwHfjSi7or-xDMxhOe-34" value="Provided Props:" style="text;align=left;verticalAlign=top;spacingLeft=4;spacingRight=4;overflow=hidden;rotatable=1;points=[[0,0.5],[1,0.5]];portConstraint=eastwest;movable=1;resizable=1;deletable=1;editable=1;locked=0;connectable=1;" vertex="1" parent="VRKwHfjSi7or-xDMxhOe-33">
          <mxGeometry y="26" width="120" height="26" as="geometry" />
        </mxCell>
        <mxCell id="VRKwHfjSi7or-xDMxhOe-35" value="    data" style="text;align=left;verticalAlign=top;spacingLeft=4;spacingRight=4;overflow=hidden;rotatable=1;points=[[0,0.5],[1,0.5]];portConstraint=eastwest;rounded=0;shadow=0;html=0;movable=1;resizable=1;deletable=1;editable=1;locked=0;connectable=1;" vertex="1" parent="VRKwHfjSi7or-xDMxhOe-33">
          <mxGeometry y="52" width="120" height="26" as="geometry" />
        </mxCell>
        <mxCell id="VRKwHfjSi7or-xDMxhOe-36" value="    user" style="text;align=left;verticalAlign=top;spacingLeft=4;spacingRight=4;overflow=hidden;rotatable=1;points=[[0,0.5],[1,0.5]];portConstraint=eastwest;rounded=0;shadow=0;html=0;movable=1;resizable=1;deletable=1;editable=1;locked=0;connectable=1;" vertex="1" parent="VRKwHfjSi7or-xDMxhOe-33">
          <mxGeometry y="78" width="120" height="26" as="geometry" />
        </mxCell>
        <mxCell id="VRKwHfjSi7or-xDMxhOe-37" value="State:" style="text;align=left;verticalAlign=top;spacingLeft=4;spacingRight=4;overflow=hidden;rotatable=1;points=[[0,0.5],[1,0.5]];portConstraint=eastwest;rounded=0;shadow=0;html=0;movable=1;resizable=1;deletable=1;editable=1;locked=0;connectable=1;" vertex="1" parent="VRKwHfjSi7or-xDMxhOe-33">
          <mxGeometry y="104" width="120" height="26" as="geometry" />
        </mxCell>
        <mxCell id="VRKwHfjSi7or-xDMxhOe-38" value="    user" style="text;align=left;verticalAlign=top;spacingLeft=4;spacingRight=4;overflow=hidden;rotatable=1;points=[[0,0.5],[1,0.5]];portConstraint=eastwest;rounded=0;shadow=0;html=0;movable=1;resizable=1;deletable=1;editable=1;locked=0;connectable=1;" vertex="1" parent="VRKwHfjSi7or-xDMxhOe-33">
          <mxGeometry y="130" width="120" height="26" as="geometry" />
        </mxCell>
        <mxCell id="VRKwHfjSi7or-xDMxhOe-39" value="    data" style="text;align=left;verticalAlign=top;spacingLeft=4;spacingRight=4;overflow=hidden;rotatable=1;points=[[0,0.5],[1,0.5]];portConstraint=eastwest;rounded=0;shadow=0;html=0;movable=1;resizable=1;deletable=1;editable=1;locked=0;connectable=1;" vertex="1" parent="VRKwHfjSi7or-xDMxhOe-33">
          <mxGeometry y="156" width="120" height="26" as="geometry" />
        </mxCell>
        <mxCell id="VRKwHfjSi7or-xDMxhOe-40" value="" style="line;html=1;strokeWidth=1;align=left;verticalAlign=middle;spacingTop=-1;spacingLeft=3;spacingRight=3;rotatable=1;labelPosition=right;points=[];portConstraint=eastwest;movable=1;resizable=1;deletable=1;editable=1;locked=0;connectable=1;" vertex="1" parent="VRKwHfjSi7or-xDMxhOe-33">
          <mxGeometry y="182" width="120" height="8" as="geometry" />
        </mxCell>
        <mxCell id="VRKwHfjSi7or-xDMxhOe-41" value="render()" style="text;align=left;verticalAlign=top;spacingLeft=4;spacingRight=4;overflow=hidden;rotatable=1;points=[[0,0.5],[1,0.5]];portConstraint=eastwest;rounded=0;shadow=0;html=0;movable=1;resizable=1;deletable=1;editable=1;locked=0;connectable=1;" vertex="1" parent="VRKwHfjSi7or-xDMxhOe-33">
          <mxGeometry y="190" width="120" height="26" as="geometry" />
        </mxCell>
        <mxCell id="VRKwHfjSi7or-xDMxhOe-42" value="PickPlaylist" style="swimlane;fontStyle=2;align=center;verticalAlign=top;childLayout=stackLayout;horizontal=1;startSize=26;horizontalStack=0;resizeParent=1;resizeLast=0;collapsible=1;marginBottom=0;rounded=0;shadow=0;strokeWidth=1;swimlaneFillColor=default;movable=1;resizable=1;rotatable=1;deletable=1;editable=1;locked=0;connectable=1;" vertex="1" parent="WIyWlLk6GJQsqaUBKTNV-1">
          <mxGeometry x="130" y="-50" width="120" height="216" as="geometry">
            <mxRectangle x="230" y="140" width="160" height="26" as="alternateBounds" />
          </mxGeometry>
        </mxCell>
        <mxCell id="VRKwHfjSi7or-xDMxhOe-43" value="Provided Props:" style="text;align=left;verticalAlign=top;spacingLeft=4;spacingRight=4;overflow=hidden;rotatable=1;points=[[0,0.5],[1,0.5]];portConstraint=eastwest;movable=1;resizable=1;deletable=1;editable=1;locked=0;connectable=1;" vertex="1" parent="VRKwHfjSi7or-xDMxhOe-42">
          <mxGeometry y="26" width="120" height="26" as="geometry" />
        </mxCell>
        <mxCell id="VRKwHfjSi7or-xDMxhOe-44" value="    data" style="text;align=left;verticalAlign=top;spacingLeft=4;spacingRight=4;overflow=hidden;rotatable=1;points=[[0,0.5],[1,0.5]];portConstraint=eastwest;rounded=0;shadow=0;html=0;movable=1;resizable=1;deletable=1;editable=1;locked=0;connectable=1;" vertex="1" parent="VRKwHfjSi7or-xDMxhOe-42">
          <mxGeometry y="52" width="120" height="26" as="geometry" />
        </mxCell>
        <mxCell id="VRKwHfjSi7or-xDMxhOe-45" value="    user" style="text;align=left;verticalAlign=top;spacingLeft=4;spacingRight=4;overflow=hidden;rotatable=1;points=[[0,0.5],[1,0.5]];portConstraint=eastwest;rounded=0;shadow=0;html=0;movable=1;resizable=1;deletable=1;editable=1;locked=0;connectable=1;" vertex="1" parent="VRKwHfjSi7or-xDMxhOe-42">
          <mxGeometry y="78" width="120" height="26" as="geometry" />
        </mxCell>
        <mxCell id="VRKwHfjSi7or-xDMxhOe-46" value="State:" style="text;align=left;verticalAlign=top;spacingLeft=4;spacingRight=4;overflow=hidden;rotatable=1;points=[[0,0.5],[1,0.5]];portConstraint=eastwest;rounded=0;shadow=0;html=0;movable=1;resizable=1;deletable=1;editable=1;locked=0;connectable=1;" vertex="1" parent="VRKwHfjSi7or-xDMxhOe-42">
          <mxGeometry y="104" width="120" height="26" as="geometry" />
        </mxCell>
        <mxCell id="VRKwHfjSi7or-xDMxhOe-47" value="    user" style="text;align=left;verticalAlign=top;spacingLeft=4;spacingRight=4;overflow=hidden;rotatable=1;points=[[0,0.5],[1,0.5]];portConstraint=eastwest;rounded=0;shadow=0;html=0;movable=1;resizable=1;deletable=1;editable=1;locked=0;connectable=1;" vertex="1" parent="VRKwHfjSi7or-xDMxhOe-42">
          <mxGeometry y="130" width="120" height="26" as="geometry" />
        </mxCell>
        <mxCell id="VRKwHfjSi7or-xDMxhOe-48" value="    data" style="text;align=left;verticalAlign=top;spacingLeft=4;spacingRight=4;overflow=hidden;rotatable=1;points=[[0,0.5],[1,0.5]];portConstraint=eastwest;rounded=0;shadow=0;html=0;movable=1;resizable=1;deletable=1;editable=1;locked=0;connectable=1;" vertex="1" parent="VRKwHfjSi7or-xDMxhOe-42">
          <mxGeometry y="156" width="120" height="26" as="geometry" />
        </mxCell>
        <mxCell id="VRKwHfjSi7or-xDMxhOe-49" value="" style="line;html=1;strokeWidth=1;align=left;verticalAlign=middle;spacingTop=-1;spacingLeft=3;spacingRight=3;rotatable=1;labelPosition=right;points=[];portConstraint=eastwest;movable=1;resizable=1;deletable=1;editable=1;locked=0;connectable=1;" vertex="1" parent="VRKwHfjSi7or-xDMxhOe-42">
          <mxGeometry y="182" width="120" height="8" as="geometry" />
        </mxCell>
        <mxCell id="VRKwHfjSi7or-xDMxhOe-50" value="render()" style="text;align=left;verticalAlign=top;spacingLeft=4;spacingRight=4;overflow=hidden;rotatable=1;points=[[0,0.5],[1,0.5]];portConstraint=eastwest;rounded=0;shadow=0;html=0;movable=1;resizable=1;deletable=1;editable=1;locked=0;connectable=1;" vertex="1" parent="VRKwHfjSi7or-xDMxhOe-42">
          <mxGeometry y="190" width="120" height="26" as="geometry" />
        </mxCell>
        <mxCell id="VRKwHfjSi7or-xDMxhOe-51" value="DataPage" style="swimlane;fontStyle=2;align=center;verticalAlign=top;childLayout=stackLayout;horizontal=1;startSize=26;horizontalStack=0;resizeParent=1;resizeLast=0;collapsible=1;marginBottom=0;rounded=0;shadow=0;strokeWidth=1;swimlaneFillColor=default;movable=1;resizable=1;rotatable=1;deletable=1;editable=1;locked=0;connectable=1;" vertex="1" parent="WIyWlLk6GJQsqaUBKTNV-1">
          <mxGeometry x="-70" y="-50" width="120" height="216" as="geometry">
            <mxRectangle x="230" y="140" width="160" height="26" as="alternateBounds" />
          </mxGeometry>
        </mxCell>
        <mxCell id="VRKwHfjSi7or-xDMxhOe-52" value="Provided Props:" style="text;align=left;verticalAlign=top;spacingLeft=4;spacingRight=4;overflow=hidden;rotatable=1;points=[[0,0.5],[1,0.5]];portConstraint=eastwest;movable=1;resizable=1;deletable=1;editable=1;locked=0;connectable=1;" vertex="1" parent="VRKwHfjSi7or-xDMxhOe-51">
          <mxGeometry y="26" width="120" height="26" as="geometry" />
        </mxCell>
        <mxCell id="VRKwHfjSi7or-xDMxhOe-53" value="    data" style="text;align=left;verticalAlign=top;spacingLeft=4;spacingRight=4;overflow=hidden;rotatable=1;points=[[0,0.5],[1,0.5]];portConstraint=eastwest;rounded=0;shadow=0;html=0;movable=1;resizable=1;deletable=1;editable=1;locked=0;connectable=1;" vertex="1" parent="VRKwHfjSi7or-xDMxhOe-51">
          <mxGeometry y="52" width="120" height="26" as="geometry" />
        </mxCell>
        <mxCell id="VRKwHfjSi7or-xDMxhOe-54" value="    user" style="text;align=left;verticalAlign=top;spacingLeft=4;spacingRight=4;overflow=hidden;rotatable=1;points=[[0,0.5],[1,0.5]];portConstraint=eastwest;rounded=0;shadow=0;html=0;movable=1;resizable=1;deletable=1;editable=1;locked=0;connectable=1;" vertex="1" parent="VRKwHfjSi7or-xDMxhOe-51">
          <mxGeometry y="78" width="120" height="26" as="geometry" />
        </mxCell>
        <mxCell id="VRKwHfjSi7or-xDMxhOe-55" value="State:" style="text;align=left;verticalAlign=top;spacingLeft=4;spacingRight=4;overflow=hidden;rotatable=1;points=[[0,0.5],[1,0.5]];portConstraint=eastwest;rounded=0;shadow=0;html=0;movable=1;resizable=1;deletable=1;editable=1;locked=0;connectable=1;" vertex="1" parent="VRKwHfjSi7or-xDMxhOe-51">
          <mxGeometry y="104" width="120" height="26" as="geometry" />
        </mxCell>
        <mxCell id="VRKwHfjSi7or-xDMxhOe-56" value="    user" style="text;align=left;verticalAlign=top;spacingLeft=4;spacingRight=4;overflow=hidden;rotatable=1;points=[[0,0.5],[1,0.5]];portConstraint=eastwest;rounded=0;shadow=0;html=0;movable=1;resizable=1;deletable=1;editable=1;locked=0;connectable=1;" vertex="1" parent="VRKwHfjSi7or-xDMxhOe-51">
          <mxGeometry y="130" width="120" height="26" as="geometry" />
        </mxCell>
        <mxCell id="VRKwHfjSi7or-xDMxhOe-57" value="    data" style="text;align=left;verticalAlign=top;spacingLeft=4;spacingRight=4;overflow=hidden;rotatable=1;points=[[0,0.5],[1,0.5]];portConstraint=eastwest;rounded=0;shadow=0;html=0;movable=1;resizable=1;deletable=1;editable=1;locked=0;connectable=1;" vertex="1" parent="VRKwHfjSi7or-xDMxhOe-51">
          <mxGeometry y="156" width="120" height="26" as="geometry" />
        </mxCell>
        <mxCell id="VRKwHfjSi7or-xDMxhOe-58" value="" style="line;html=1;strokeWidth=1;align=left;verticalAlign=middle;spacingTop=-1;spacingLeft=3;spacingRight=3;rotatable=1;labelPosition=right;points=[];portConstraint=eastwest;movable=1;resizable=1;deletable=1;editable=1;locked=0;connectable=1;" vertex="1" parent="VRKwHfjSi7or-xDMxhOe-51">
          <mxGeometry y="182" width="120" height="8" as="geometry" />
        </mxCell>
        <mxCell id="VRKwHfjSi7or-xDMxhOe-59" value="render()" style="text;align=left;verticalAlign=top;spacingLeft=4;spacingRight=4;overflow=hidden;rotatable=1;points=[[0,0.5],[1,0.5]];portConstraint=eastwest;rounded=0;shadow=0;html=0;movable=1;resizable=1;deletable=1;editable=1;locked=0;connectable=1;" vertex="1" parent="VRKwHfjSi7or-xDMxhOe-51">
          <mxGeometry y="190" width="120" height="26" as="geometry" />
        </mxCell>
        <mxCell id="VRKwHfjSi7or-xDMxhOe-60" value="WidgetFactory" style="swimlane;fontStyle=2;align=center;verticalAlign=top;childLayout=stackLayout;horizontal=1;startSize=26;horizontalStack=0;resizeParent=1;resizeLast=0;collapsible=1;marginBottom=0;rounded=0;shadow=0;strokeWidth=1;fillColor=#FFFFFF;swimlaneFillColor=default;movable=1;resizable=1;rotatable=1;deletable=1;editable=1;locked=0;connectable=1;" vertex="1" parent="WIyWlLk6GJQsqaUBKTNV-1">
          <mxGeometry x="-540" y="-40" width="120" height="164" as="geometry">
            <mxRectangle x="230" y="140" width="160" height="26" as="alternateBounds" />
          </mxGeometry>
        </mxCell>
        <mxCell id="VRKwHfjSi7or-xDMxhOe-61" value="Props:" style="text;align=left;verticalAlign=top;spacingLeft=4;spacingRight=4;overflow=hidden;rotatable=1;points=[[0,0.5],[1,0.5]];portConstraint=eastwest;fillColor=default;movable=1;resizable=1;deletable=1;editable=1;locked=0;connectable=1;" vertex="1" parent="VRKwHfjSi7or-xDMxhOe-60">
          <mxGeometry y="26" width="120" height="26" as="geometry" />
        </mxCell>
        <mxCell id="VRKwHfjSi7or-xDMxhOe-62" value="    data" style="text;align=left;verticalAlign=top;spacingLeft=4;spacingRight=4;overflow=hidden;rotatable=1;points=[[0,0.5],[1,0.5]];portConstraint=eastwest;rounded=0;shadow=0;html=0;fillColor=default;movable=1;resizable=1;deletable=1;editable=1;locked=0;connectable=1;" vertex="1" parent="VRKwHfjSi7or-xDMxhOe-60">
          <mxGeometry y="52" width="120" height="26" as="geometry" />
        </mxCell>
        <mxCell id="VRKwHfjSi7or-xDMxhOe-63" value="    user" style="text;align=left;verticalAlign=top;spacingLeft=4;spacingRight=4;overflow=hidden;rotatable=1;points=[[0,0.5],[1,0.5]];portConstraint=eastwest;rounded=0;shadow=0;html=0;fillColor=default;movable=1;resizable=1;deletable=1;editable=1;locked=0;connectable=1;" vertex="1" parent="VRKwHfjSi7or-xDMxhOe-60">
          <mxGeometry y="78" width="120" height="26" as="geometry" />
        </mxCell>
        <mxCell id="VRKwHfjSi7or-xDMxhOe-69" value="    widgetType" style="text;align=left;verticalAlign=top;spacingLeft=4;spacingRight=4;overflow=hidden;rotatable=1;points=[[0,0.5],[1,0.5]];portConstraint=eastwest;rounded=0;shadow=0;html=0;fillColor=default;movable=1;resizable=1;deletable=1;editable=1;locked=0;connectable=1;" vertex="1" parent="VRKwHfjSi7or-xDMxhOe-60">
          <mxGeometry y="104" width="120" height="26" as="geometry" />
        </mxCell>
        <mxCell id="VRKwHfjSi7or-xDMxhOe-67" value="" style="line;html=1;strokeWidth=1;align=left;verticalAlign=middle;spacingTop=-1;spacingLeft=3;spacingRight=3;rotatable=1;labelPosition=right;points=[];portConstraint=eastwest;fillColor=default;movable=1;resizable=1;deletable=1;editable=1;locked=0;connectable=1;" vertex="1" parent="VRKwHfjSi7or-xDMxhOe-60">
          <mxGeometry y="130" width="120" height="8" as="geometry" />
        </mxCell>
        <mxCell id="VRKwHfjSi7or-xDMxhOe-68" value="createWidget()" style="text;align=left;verticalAlign=top;spacingLeft=4;spacingRight=4;overflow=hidden;rotatable=1;points=[[0,0.5],[1,0.5]];portConstraint=eastwest;rounded=0;shadow=0;html=0;fillColor=default;movable=1;resizable=1;deletable=1;editable=1;locked=0;connectable=1;" vertex="1" parent="VRKwHfjSi7or-xDMxhOe-60">
          <mxGeometry y="138" width="120" height="26" as="geometry" />
        </mxCell>
        <mxCell id="VRKwHfjSi7or-xDMxhOe-70" value="&lt;&lt;Abstract&gt;&gt;&#xa;Widget" style="swimlane;fontStyle=2;align=center;verticalAlign=top;childLayout=stackLayout;horizontal=1;startSize=40;horizontalStack=0;resizeParent=1;resizeLast=0;collapsible=1;marginBottom=0;rounded=0;shadow=0;strokeWidth=1;swimlaneFillColor=default;movable=1;resizable=1;rotatable=1;deletable=1;editable=1;locked=0;connectable=1;" vertex="1" parent="WIyWlLk6GJQsqaUBKTNV-1">
          <mxGeometry x="-394.5" y="60" width="120" height="170" as="geometry">
            <mxRectangle x="230" y="140" width="160" height="26" as="alternateBounds" />
          </mxGeometry>
        </mxCell>
        <mxCell id="VRKwHfjSi7or-xDMxhOe-71" value="State:" style="text;align=left;verticalAlign=top;spacingLeft=4;spacingRight=4;overflow=hidden;rotatable=1;points=[[0,0.5],[1,0.5]];portConstraint=eastwest;movable=1;resizable=1;deletable=1;editable=1;locked=0;connectable=1;" vertex="1" parent="VRKwHfjSi7or-xDMxhOe-70">
          <mxGeometry y="40" width="120" height="26" as="geometry" />
        </mxCell>
        <mxCell id="VRKwHfjSi7or-xDMxhOe-72" value="    data" style="text;align=left;verticalAlign=top;spacingLeft=4;spacingRight=4;overflow=hidden;rotatable=1;points=[[0,0.5],[1,0.5]];portConstraint=eastwest;rounded=0;shadow=0;html=0;movable=1;resizable=1;deletable=1;editable=1;locked=0;connectable=1;" vertex="1" parent="VRKwHfjSi7or-xDMxhOe-70">
          <mxGeometry y="66" width="120" height="26" as="geometry" />
        </mxCell>
        <mxCell id="VRKwHfjSi7or-xDMxhOe-73" value="    user" style="text;align=left;verticalAlign=top;spacingLeft=4;spacingRight=4;overflow=hidden;rotatable=1;points=[[0,0.5],[1,0.5]];portConstraint=eastwest;rounded=0;shadow=0;html=0;movable=1;resizable=1;deletable=1;editable=1;locked=0;connectable=1;" vertex="1" parent="VRKwHfjSi7or-xDMxhOe-70">
          <mxGeometry y="92" width="120" height="26" as="geometry" />
        </mxCell>
        <mxCell id="VRKwHfjSi7or-xDMxhOe-90" value="    startDate" style="text;align=left;verticalAlign=top;spacingLeft=4;spacingRight=4;overflow=hidden;rotatable=1;points=[[0,0.5],[1,0.5]];portConstraint=eastwest;rounded=0;shadow=0;html=0;movable=1;resizable=1;deletable=1;editable=1;locked=0;connectable=1;" vertex="1" parent="VRKwHfjSi7or-xDMxhOe-70">
          <mxGeometry y="118" width="120" height="26" as="geometry" />
        </mxCell>
        <mxCell id="VRKwHfjSi7or-xDMxhOe-91" value="    endDate" style="text;align=left;verticalAlign=top;spacingLeft=4;spacingRight=4;overflow=hidden;rotatable=1;points=[[0,0.5],[1,0.5]];portConstraint=eastwest;rounded=0;shadow=0;html=0;movable=1;resizable=1;deletable=1;editable=1;locked=0;connectable=1;" vertex="1" parent="VRKwHfjSi7or-xDMxhOe-70">
          <mxGeometry y="144" width="120" height="26" as="geometry" />
        </mxCell>
        <mxCell id="VRKwHfjSi7or-xDMxhOe-78" value="AlbumData" style="swimlane;fontStyle=2;align=center;verticalAlign=top;childLayout=stackLayout;horizontal=1;startSize=30;horizontalStack=0;resizeParent=1;resizeLast=0;collapsible=1;marginBottom=0;rounded=0;shadow=0;strokeWidth=1;swimlaneFillColor=default;movable=1;resizable=1;rotatable=1;deletable=1;editable=1;locked=0;connectable=1;" vertex="1" parent="WIyWlLk6GJQsqaUBKTNV-1">
          <mxGeometry x="-529" y="311" width="120" height="56" as="geometry">
            <mxRectangle x="230" y="140" width="160" height="26" as="alternateBounds" />
          </mxGeometry>
        </mxCell>
        <mxCell id="VRKwHfjSi7or-xDMxhOe-92" value="render()" style="text;align=left;verticalAlign=top;spacingLeft=4;spacingRight=4;overflow=hidden;rotatable=1;points=[[0,0.5],[1,0.5]];portConstraint=eastwest;rounded=0;shadow=0;html=0;movable=1;resizable=1;deletable=1;editable=1;locked=0;connectable=1;" vertex="1" parent="VRKwHfjSi7or-xDMxhOe-78">
          <mxGeometry y="30" width="120" height="26" as="geometry" />
        </mxCell>
        <mxCell id="VRKwHfjSi7or-xDMxhOe-95" value="ArtistData" style="swimlane;fontStyle=2;align=center;verticalAlign=top;childLayout=stackLayout;horizontal=1;startSize=30;horizontalStack=0;resizeParent=1;resizeLast=0;collapsible=1;marginBottom=0;rounded=0;shadow=0;strokeWidth=1;swimlaneFillColor=default;movable=1;resizable=1;rotatable=1;deletable=1;editable=1;locked=0;connectable=1;" vertex="1" parent="WIyWlLk6GJQsqaUBKTNV-1">
          <mxGeometry x="-260" y="311" width="120" height="56" as="geometry">
            <mxRectangle x="230" y="140" width="160" height="26" as="alternateBounds" />
          </mxGeometry>
        </mxCell>
        <mxCell id="VRKwHfjSi7or-xDMxhOe-96" value="render()" style="text;align=left;verticalAlign=top;spacingLeft=4;spacingRight=4;overflow=hidden;rotatable=1;points=[[0,0.5],[1,0.5]];portConstraint=eastwest;rounded=0;shadow=0;html=0;movable=1;resizable=1;deletable=1;editable=1;locked=0;connectable=1;" vertex="1" parent="VRKwHfjSi7or-xDMxhOe-95">
          <mxGeometry y="30" width="120" height="26" as="geometry" />
        </mxCell>
        <mxCell id="VRKwHfjSi7or-xDMxhOe-97" value="SongData" style="swimlane;fontStyle=2;align=center;verticalAlign=top;childLayout=stackLayout;horizontal=1;startSize=30;horizontalStack=0;resizeParent=1;resizeLast=0;collapsible=1;marginBottom=0;rounded=0;shadow=0;strokeWidth=1;swimlaneFillColor=default;movable=1;resizable=1;rotatable=1;deletable=1;editable=1;locked=0;connectable=1;" vertex="1" parent="WIyWlLk6GJQsqaUBKTNV-1">
          <mxGeometry x="-394.5" y="311" width="120" height="56" as="geometry">
            <mxRectangle x="230" y="140" width="160" height="26" as="alternateBounds" />
          </mxGeometry>
        </mxCell>
        <mxCell id="VRKwHfjSi7or-xDMxhOe-98" value="render()" style="text;align=left;verticalAlign=top;spacingLeft=4;spacingRight=4;overflow=hidden;rotatable=1;points=[[0,0.5],[1,0.5]];portConstraint=eastwest;rounded=0;shadow=0;html=0;movable=1;resizable=1;deletable=1;editable=1;locked=0;connectable=1;" vertex="1" parent="VRKwHfjSi7or-xDMxhOe-97">
          <mxGeometry y="30" width="120" height="26" as="geometry" />
        </mxCell>
        <mxCell id="VRKwHfjSi7or-xDMxhOe-99" value="Extends" style="endArrow=block;endSize=16;endFill=0;html=1;rounded=0;entryX=0.5;entryY=1;entryDx=0;entryDy=0;entryPerimeter=0;labelBackgroundColor=#CCE5FF;movable=1;resizable=1;rotatable=1;deletable=1;editable=1;locked=0;connectable=1;" edge="1" parent="WIyWlLk6GJQsqaUBKTNV-1" target="VRKwHfjSi7or-xDMxhOe-91">
          <mxGeometry x="-0.3439" y="-1" width="160" relative="1" as="geometry">
            <mxPoint x="-334.5" y="291" as="sourcePoint" />
            <mxPoint x="-314.5" y="250" as="targetPoint" />
            <mxPoint as="offset" />
          </mxGeometry>
        </mxCell>
        <mxCell id="VRKwHfjSi7or-xDMxhOe-100" value="" style="endArrow=none;html=1;rounded=0;exitX=0.5;exitY=0;exitDx=0;exitDy=0;movable=1;resizable=1;rotatable=1;deletable=1;editable=1;locked=0;connectable=1;" edge="1" parent="WIyWlLk6GJQsqaUBKTNV-1" source="VRKwHfjSi7or-xDMxhOe-78">
          <mxGeometry width="50" height="50" relative="1" as="geometry">
            <mxPoint x="-464.5" y="311" as="sourcePoint" />
            <mxPoint x="-334.5" y="291" as="targetPoint" />
            <Array as="points">
              <mxPoint x="-468.5" y="291" />
            </Array>
          </mxGeometry>
        </mxCell>
        <mxCell id="VRKwHfjSi7or-xDMxhOe-101" value="" style="endArrow=none;html=1;rounded=0;entryX=0.5;entryY=0;entryDx=0;entryDy=0;movable=1;resizable=1;rotatable=1;deletable=1;editable=1;locked=0;connectable=1;" edge="1" parent="WIyWlLk6GJQsqaUBKTNV-1" target="VRKwHfjSi7or-xDMxhOe-95">
          <mxGeometry width="50" height="50" relative="1" as="geometry">
            <mxPoint x="-334.5" y="291" as="sourcePoint" />
            <mxPoint x="-184.5" y="281" as="targetPoint" />
            <Array as="points">
              <mxPoint x="-199.5" y="291" />
            </Array>
          </mxGeometry>
        </mxCell>
        <mxCell id="VRKwHfjSi7or-xDMxhOe-102" value="" style="endArrow=none;html=1;rounded=0;exitX=0.5;exitY=0;exitDx=0;exitDy=0;movable=1;resizable=1;rotatable=1;deletable=1;editable=1;locked=0;connectable=1;" edge="1" parent="WIyWlLk6GJQsqaUBKTNV-1" source="VRKwHfjSi7or-xDMxhOe-97">
          <mxGeometry width="50" height="50" relative="1" as="geometry">
            <mxPoint x="-334.5" y="301" as="sourcePoint" />
            <mxPoint x="-334.5" y="291" as="targetPoint" />
          </mxGeometry>
        </mxCell>
        <mxCell id="VRKwHfjSi7or-xDMxhOe-106" value="" style="endArrow=none;html=1;rounded=0;entryX=0.004;entryY=0.068;entryDx=0;entryDy=0;exitX=0.5;exitY=0;exitDx=0;exitDy=0;entryPerimeter=0;movable=1;resizable=1;rotatable=1;deletable=1;editable=1;locked=0;connectable=1;" edge="1" parent="WIyWlLk6GJQsqaUBKTNV-1" source="VRKwHfjSi7or-xDMxhOe-60" target="VRKwHfjSi7or-xDMxhOe-51">
          <mxGeometry width="50" height="50" relative="1" as="geometry">
            <mxPoint x="-170" y="190" as="sourcePoint" />
            <mxPoint x="-111.19999999999982" y="-35.3119999999999" as="targetPoint" />
            <Array as="points">
              <mxPoint x="-480" y="-70" />
              <mxPoint x="-210" y="-70" />
              <mxPoint x="-210" y="-35" />
            </Array>
          </mxGeometry>
        </mxCell>
        <mxCell id="VRKwHfjSi7or-xDMxhOe-107" value="" style="endArrow=none;html=1;rounded=0;exitX=1;exitY=0.5;exitDx=0;exitDy=0;entryX=0.496;entryY=0.002;entryDx=0;entryDy=0;entryPerimeter=0;movable=1;resizable=1;rotatable=1;deletable=1;editable=1;locked=0;connectable=1;" edge="1" parent="WIyWlLk6GJQsqaUBKTNV-1" source="VRKwHfjSi7or-xDMxhOe-62" target="VRKwHfjSi7or-xDMxhOe-70">
          <mxGeometry width="50" height="50" relative="1" as="geometry">
            <mxPoint x="-400" y="70" as="sourcePoint" />
            <mxPoint x="-350" y="20" as="targetPoint" />
            <Array as="points">
              <mxPoint x="-334.5" y="25" />
            </Array>
          </mxGeometry>
        </mxCell>
        <mxCell id="VRKwHfjSi7or-xDMxhOe-109" value="&lt;font size=&quot;1&quot; style=&quot;&quot;&gt;&lt;b style=&quot;font-size: 24px;&quot;&gt;&lt;a href=&quot;https://www.patterns.dev/posts/factory-pattern&quot;&gt;Factory Pattern&lt;/a&gt;&lt;/b&gt;&lt;/font&gt;" style="text;strokeColor=none;align=center;fillColor=none;html=1;verticalAlign=middle;whiteSpace=wrap;rounded=0;movable=1;resizable=1;rotatable=1;deletable=1;editable=1;locked=0;connectable=1;" vertex="1" parent="WIyWlLk6GJQsqaUBKTNV-1">
          <mxGeometry x="-274.5" y="-20" width="114.5" height="60" as="geometry" />
        </mxCell>
        <mxCell id="VRKwHfjSi7or-xDMxhOe-110" value="" style="endArrow=none;html=1;rounded=0;exitX=0.5;exitY=0;exitDx=0;exitDy=0;entryX=1.002;entryY=0.047;entryDx=0;entryDy=0;entryPerimeter=0;movable=1;resizable=1;rotatable=1;deletable=1;editable=1;locked=0;connectable=1;" edge="1" parent="WIyWlLk6GJQsqaUBKTNV-1" source="VRKwHfjSi7or-xDMxhOe-111" target="VRKwHfjSi7or-xDMxhOe-42">
          <mxGeometry width="50" height="50" relative="1" as="geometry">
            <mxPoint x="130" y="220" as="sourcePoint" />
            <mxPoint x="90" y="170" as="targetPoint" />
            <Array as="points">
              <mxPoint x="330" y="-40" />
            </Array>
          </mxGeometry>
        </mxCell>
        <mxCell id="VRKwHfjSi7or-xDMxhOe-111" value="SearchBar" style="swimlane;fontStyle=2;align=center;verticalAlign=top;childLayout=stackLayout;horizontal=1;startSize=26;horizontalStack=0;resizeParent=1;resizeLast=0;collapsible=1;marginBottom=0;rounded=0;shadow=0;strokeWidth=1;swimlaneFillColor=default;movable=1;resizable=1;rotatable=1;deletable=1;editable=1;locked=0;connectable=1;" vertex="1" parent="WIyWlLk6GJQsqaUBKTNV-1">
          <mxGeometry x="270" width="120" height="112" as="geometry">
            <mxRectangle x="230" y="140" width="160" height="26" as="alternateBounds" />
          </mxGeometry>
        </mxCell>
        <mxCell id="VRKwHfjSi7or-xDMxhOe-112" value="State:" style="text;align=left;verticalAlign=top;spacingLeft=4;spacingRight=4;overflow=hidden;rotatable=1;points=[[0,0.5],[1,0.5]];portConstraint=eastwest;movable=1;resizable=1;deletable=1;editable=1;locked=0;connectable=1;" vertex="1" parent="VRKwHfjSi7or-xDMxhOe-111">
          <mxGeometry y="26" width="120" height="26" as="geometry" />
        </mxCell>
        <mxCell id="VRKwHfjSi7or-xDMxhOe-113" value="    searchTerm" style="text;align=left;verticalAlign=top;spacingLeft=4;spacingRight=4;overflow=hidden;rotatable=1;points=[[0,0.5],[1,0.5]];portConstraint=eastwest;rounded=0;shadow=0;html=0;movable=1;resizable=1;deletable=1;editable=1;locked=0;connectable=1;" vertex="1" parent="VRKwHfjSi7or-xDMxhOe-111">
          <mxGeometry y="52" width="120" height="26" as="geometry" />
        </mxCell>
        <mxCell id="VRKwHfjSi7or-xDMxhOe-118" value="" style="line;html=1;strokeWidth=1;align=left;verticalAlign=middle;spacingTop=-1;spacingLeft=3;spacingRight=3;rotatable=1;labelPosition=right;points=[];portConstraint=eastwest;movable=1;resizable=1;deletable=1;editable=1;locked=0;connectable=1;" vertex="1" parent="VRKwHfjSi7or-xDMxhOe-111">
          <mxGeometry y="78" width="120" height="8" as="geometry" />
        </mxCell>
        <mxCell id="VRKwHfjSi7or-xDMxhOe-119" value="render()" style="text;align=left;verticalAlign=top;spacingLeft=4;spacingRight=4;overflow=hidden;rotatable=1;points=[[0,0.5],[1,0.5]];portConstraint=eastwest;rounded=0;shadow=0;html=0;movable=1;resizable=1;deletable=1;editable=1;locked=0;connectable=1;" vertex="1" parent="VRKwHfjSi7or-xDMxhOe-111">
          <mxGeometry y="86" width="120" height="26" as="geometry" />
        </mxCell>
        <mxCell id="VRKwHfjSi7or-xDMxhOe-121" value="" style="endArrow=none;html=1;rounded=0;entryX=0.5;entryY=1;entryDx=0;entryDy=0;entryPerimeter=0;exitX=0.5;exitY=0;exitDx=0;exitDy=0;endFill=0;startArrow=block;startFill=1;movable=1;resizable=1;rotatable=1;deletable=1;editable=1;locked=0;connectable=1;" edge="1" parent="WIyWlLk6GJQsqaUBKTNV-1" source="VRKwHfjSi7or-xDMxhOe-22" target="VRKwHfjSi7or-xDMxhOe-27">
          <mxGeometry width="50" height="50" relative="1" as="geometry">
            <mxPoint x="160" y="-260" as="sourcePoint" />
            <mxPoint x="260" y="-30" as="targetPoint" />
          </mxGeometry>
        </mxCell>
        <mxCell id="VRKwHfjSi7or-xDMxhOe-122" value="&lt;font size=&quot;1&quot; style=&quot;&quot;&gt;&lt;b style=&quot;font-size: 24px;&quot;&gt;&lt;a href=&quot;https://www.patterns.dev/posts/provider-pattern&quot;&gt;Provider Pattern&lt;/a&gt;&lt;/b&gt;&lt;/font&gt;" style="text;strokeColor=none;align=center;fillColor=none;html=1;verticalAlign=middle;whiteSpace=wrap;rounded=0;movable=1;resizable=1;rotatable=1;deletable=1;editable=1;locked=0;connectable=1;" vertex="1" parent="WIyWlLk6GJQsqaUBKTNV-1">
          <mxGeometry x="275.5" y="-560" width="114.5" height="60" as="geometry" />
        </mxCell>
        <mxCell id="VRKwHfjSi7or-xDMxhOe-123" value="" style="endArrow=none;html=1;rounded=0;exitX=0.5;exitY=0;exitDx=0;exitDy=0;endFill=0;startArrow=block;startFill=1;entryX=0.504;entryY=1.027;entryDx=0;entryDy=0;entryPerimeter=0;movable=1;resizable=1;rotatable=1;deletable=1;editable=1;locked=0;connectable=1;" edge="1" parent="WIyWlLk6GJQsqaUBKTNV-1" source="VRKwHfjSi7or-xDMxhOe-51" target="VRKwHfjSi7or-xDMxhOe-175">
          <mxGeometry width="50" height="50" relative="1" as="geometry">
            <mxPoint x="200" y="-310" as="sourcePoint" />
            <mxPoint x="190" y="-110" as="targetPoint" />
            <Array as="points">
              <mxPoint x="-10" y="-80" />
              <mxPoint x="190" y="-80" />
            </Array>
          </mxGeometry>
        </mxCell>
        <mxCell id="VRKwHfjSi7or-xDMxhOe-124" value="" style="endArrow=block;html=1;rounded=0;entryX=0.5;entryY=0;entryDx=0;entryDy=0;startArrow=none;startFill=0;endFill=1;movable=1;resizable=1;rotatable=1;deletable=1;editable=1;locked=0;connectable=1;" edge="1" parent="WIyWlLk6GJQsqaUBKTNV-1" target="VRKwHfjSi7or-xDMxhOe-33">
          <mxGeometry width="50" height="50" relative="1" as="geometry">
            <mxPoint x="190" y="-80" as="sourcePoint" />
            <mxPoint x="430" y="-110" as="targetPoint" />
            <Array as="points">
              <mxPoint x="480" y="-80" />
            </Array>
          </mxGeometry>
        </mxCell>
        <mxCell id="VRKwHfjSi7or-xDMxhOe-126" value="" style="endArrow=none;html=1;rounded=0;exitX=0.5;exitY=0;exitDx=0;exitDy=0;startArrow=block;startFill=1;movable=1;resizable=1;rotatable=1;deletable=1;editable=1;locked=0;connectable=1;" edge="1" parent="WIyWlLk6GJQsqaUBKTNV-1" source="VRKwHfjSi7or-xDMxhOe-42">
          <mxGeometry width="50" height="50" relative="1" as="geometry">
            <mxPoint x="210" y="-60" as="sourcePoint" />
            <mxPoint x="190" y="-80" as="targetPoint" />
          </mxGeometry>
        </mxCell>
        <mxCell id="VRKwHfjSi7or-xDMxhOe-143" value="" style="rounded=1;whiteSpace=wrap;html=1;arcSize=7;fillColor=#CCE5FF;movable=1;resizable=1;rotatable=1;deletable=1;editable=1;locked=0;connectable=1;" vertex="1" parent="WIyWlLk6GJQsqaUBKTNV-1">
          <mxGeometry x="-110" y="200" width="221" height="580" as="geometry" />
        </mxCell>
        <mxCell id="VRKwHfjSi7or-xDMxhOe-127" value="&lt;&lt;Module&gt;&gt;&#xa;sorter.js" style="swimlane;fontStyle=2;align=center;verticalAlign=top;childLayout=stackLayout;horizontal=1;startSize=40;horizontalStack=0;resizeParent=1;resizeLast=0;collapsible=1;marginBottom=0;rounded=0;shadow=0;strokeWidth=1;swimlaneFillColor=default;movable=1;resizable=1;rotatable=1;deletable=1;editable=1;locked=0;connectable=1;" vertex="1" parent="WIyWlLk6GJQsqaUBKTNV-1">
          <mxGeometry x="-60" y="310" width="120" height="456" as="geometry">
            <mxRectangle x="230" y="140" width="160" height="26" as="alternateBounds" />
          </mxGeometry>
        </mxCell>
        <mxCell id="VRKwHfjSi7or-xDMxhOe-142" value="byOriginalOrder()" style="text;align=left;verticalAlign=top;spacingLeft=4;spacingRight=4;overflow=hidden;rotatable=1;points=[[0,0.5],[1,0.5]];portConstraint=eastwest;rounded=0;shadow=0;html=0;fillColor=none;movable=1;resizable=1;deletable=1;editable=1;locked=0;connectable=1;" vertex="1" parent="VRKwHfjSi7or-xDMxhOe-127">
          <mxGeometry y="40" width="120" height="26" as="geometry" />
        </mxCell>
        <mxCell id="VRKwHfjSi7or-xDMxhOe-129" value="byTitle()" style="text;align=left;verticalAlign=top;spacingLeft=4;spacingRight=4;overflow=hidden;rotatable=1;points=[[0,0.5],[1,0.5]];portConstraint=eastwest;rounded=0;shadow=0;html=0;fillColor=none;movable=1;resizable=1;deletable=1;editable=1;locked=0;connectable=1;" vertex="1" parent="VRKwHfjSi7or-xDMxhOe-127">
          <mxGeometry y="66" width="120" height="26" as="geometry" />
        </mxCell>
        <mxCell id="VRKwHfjSi7or-xDMxhOe-130" value="byArtist()" style="text;align=left;verticalAlign=top;spacingLeft=4;spacingRight=4;overflow=hidden;rotatable=1;points=[[0,0.5],[1,0.5]];portConstraint=eastwest;rounded=0;shadow=0;html=0;fillColor=none;movable=1;resizable=1;deletable=1;editable=1;locked=0;connectable=1;" vertex="1" parent="VRKwHfjSi7or-xDMxhOe-127">
          <mxGeometry y="92" width="120" height="26" as="geometry" />
        </mxCell>
        <mxCell id="VRKwHfjSi7or-xDMxhOe-132" value="byRelease()" style="text;align=left;verticalAlign=top;spacingLeft=4;spacingRight=4;overflow=hidden;rotatable=1;points=[[0,0.5],[1,0.5]];portConstraint=eastwest;rounded=0;shadow=0;html=0;fillColor=none;movable=1;resizable=1;deletable=1;editable=1;locked=0;connectable=1;" vertex="1" parent="VRKwHfjSi7or-xDMxhOe-127">
          <mxGeometry y="118" width="120" height="26" as="geometry" />
        </mxCell>
        <mxCell id="VRKwHfjSi7or-xDMxhOe-133" value="byBPM()" style="text;align=left;verticalAlign=top;spacingLeft=4;spacingRight=4;overflow=hidden;rotatable=1;points=[[0,0.5],[1,0.5]];portConstraint=eastwest;rounded=0;shadow=0;html=0;fillColor=none;movable=1;resizable=1;deletable=1;editable=1;locked=0;connectable=1;" vertex="1" parent="VRKwHfjSi7or-xDMxhOe-127">
          <mxGeometry y="144" width="120" height="26" as="geometry" />
        </mxCell>
        <mxCell id="VRKwHfjSi7or-xDMxhOe-134" value="byEnergy()" style="text;align=left;verticalAlign=top;spacingLeft=4;spacingRight=4;overflow=hidden;rotatable=1;points=[[0,0.5],[1,0.5]];portConstraint=eastwest;rounded=0;shadow=0;html=0;fillColor=none;movable=1;resizable=1;deletable=1;editable=1;locked=0;connectable=1;" vertex="1" parent="VRKwHfjSi7or-xDMxhOe-127">
          <mxGeometry y="170" width="120" height="26" as="geometry" />
        </mxCell>
        <mxCell id="VRKwHfjSi7or-xDMxhOe-135" value="byDanceability()" style="text;align=left;verticalAlign=top;spacingLeft=4;spacingRight=4;overflow=hidden;rotatable=1;points=[[0,0.5],[1,0.5]];portConstraint=eastwest;rounded=0;shadow=0;html=0;fillColor=none;movable=1;resizable=1;deletable=1;editable=1;locked=0;connectable=1;" vertex="1" parent="VRKwHfjSi7or-xDMxhOe-127">
          <mxGeometry y="196" width="120" height="26" as="geometry" />
        </mxCell>
        <mxCell id="VRKwHfjSi7or-xDMxhOe-136" value="byLoudness()" style="text;align=left;verticalAlign=top;spacingLeft=4;spacingRight=4;overflow=hidden;rotatable=1;points=[[0,0.5],[1,0.5]];portConstraint=eastwest;rounded=0;shadow=0;html=0;fillColor=none;movable=1;resizable=1;deletable=1;editable=1;locked=0;connectable=1;" vertex="1" parent="VRKwHfjSi7or-xDMxhOe-127">
          <mxGeometry y="222" width="120" height="26" as="geometry" />
        </mxCell>
        <mxCell id="VRKwHfjSi7or-xDMxhOe-137" value="byValence()" style="text;align=left;verticalAlign=top;spacingLeft=4;spacingRight=4;overflow=hidden;rotatable=1;points=[[0,0.5],[1,0.5]];portConstraint=eastwest;rounded=0;shadow=0;html=0;fillColor=none;movable=1;resizable=1;deletable=1;editable=1;locked=0;connectable=1;" vertex="1" parent="VRKwHfjSi7or-xDMxhOe-127">
          <mxGeometry y="248" width="120" height="26" as="geometry" />
        </mxCell>
        <mxCell id="VRKwHfjSi7or-xDMxhOe-138" value="byLength()" style="text;align=left;verticalAlign=top;spacingLeft=4;spacingRight=4;overflow=hidden;rotatable=1;points=[[0,0.5],[1,0.5]];portConstraint=eastwest;rounded=0;shadow=0;html=0;fillColor=none;movable=1;resizable=1;deletable=1;editable=1;locked=0;connectable=1;" vertex="1" parent="VRKwHfjSi7or-xDMxhOe-127">
          <mxGeometry y="274" width="120" height="26" as="geometry" />
        </mxCell>
        <mxCell id="VRKwHfjSi7or-xDMxhOe-139" value="byAcoustics()" style="text;align=left;verticalAlign=top;spacingLeft=4;spacingRight=4;overflow=hidden;rotatable=1;points=[[0,0.5],[1,0.5]];portConstraint=eastwest;rounded=0;shadow=0;html=0;fillColor=none;movable=1;resizable=1;deletable=1;editable=1;locked=0;connectable=1;" vertex="1" parent="VRKwHfjSi7or-xDMxhOe-127">
          <mxGeometry y="300" width="120" height="26" as="geometry" />
        </mxCell>
        <mxCell id="VRKwHfjSi7or-xDMxhOe-140" value="byPopularity()" style="text;align=left;verticalAlign=top;spacingLeft=4;spacingRight=4;overflow=hidden;rotatable=1;points=[[0,0.5],[1,0.5]];portConstraint=eastwest;rounded=0;shadow=0;html=0;fillColor=none;movable=1;resizable=1;deletable=1;editable=1;locked=0;connectable=1;" vertex="1" parent="VRKwHfjSi7or-xDMxhOe-127">
          <mxGeometry y="326" width="120" height="26" as="geometry" />
        </mxCell>
        <mxCell id="VRKwHfjSi7or-xDMxhOe-141" value="byRandom()" style="text;align=left;verticalAlign=top;spacingLeft=4;spacingRight=4;overflow=hidden;rotatable=1;points=[[0,0.5],[1,0.5]];portConstraint=eastwest;rounded=0;shadow=0;html=0;fillColor=none;movable=1;resizable=1;deletable=1;editable=1;locked=0;connectable=1;" vertex="1" parent="VRKwHfjSi7or-xDMxhOe-127">
          <mxGeometry y="352" width="120" height="26" as="geometry" />
        </mxCell>
        <mxCell id="VRKwHfjSi7or-xDMxhOe-158" value="sortAlbumData()" style="text;align=left;verticalAlign=top;spacingLeft=4;spacingRight=4;overflow=hidden;rotatable=1;points=[[0,0.5],[1,0.5]];portConstraint=eastwest;rounded=0;shadow=0;html=0;fillColor=none;movable=1;resizable=1;deletable=1;editable=1;locked=0;connectable=1;" vertex="1" parent="VRKwHfjSi7or-xDMxhOe-127">
          <mxGeometry y="378" width="120" height="26" as="geometry" />
        </mxCell>
        <mxCell id="VRKwHfjSi7or-xDMxhOe-159" value="sortSongData()" style="text;align=left;verticalAlign=top;spacingLeft=4;spacingRight=4;overflow=hidden;rotatable=1;points=[[0,0.5],[1,0.5]];portConstraint=eastwest;rounded=0;shadow=0;html=0;fillColor=none;movable=1;resizable=1;deletable=1;editable=1;locked=0;connectable=1;" vertex="1" parent="VRKwHfjSi7or-xDMxhOe-127">
          <mxGeometry y="404" width="120" height="26" as="geometry" />
        </mxCell>
        <mxCell id="VRKwHfjSi7or-xDMxhOe-160" value="sortArtistData()" style="text;align=left;verticalAlign=top;spacingLeft=4;spacingRight=4;overflow=hidden;rotatable=1;points=[[0,0.5],[1,0.5]];portConstraint=eastwest;rounded=0;shadow=0;html=0;fillColor=none;movable=1;resizable=1;deletable=1;editable=1;locked=0;connectable=1;" vertex="1" parent="VRKwHfjSi7or-xDMxhOe-127">
          <mxGeometry y="430" width="120" height="26" as="geometry" />
        </mxCell>
        <mxCell id="VRKwHfjSi7or-xDMxhOe-144" value="&lt;font size=&quot;1&quot; style=&quot;&quot;&gt;&lt;b style=&quot;font-size: 24px;&quot;&gt;&lt;a href=&quot;https://www.patterns.dev/posts/module-pattern&quot;&gt;Module Pattern&lt;/a&gt;&lt;/b&gt;&lt;/font&gt;" style="text;strokeColor=none;align=center;fillColor=none;html=1;verticalAlign=middle;whiteSpace=wrap;rounded=0;movable=1;resizable=1;rotatable=1;deletable=1;editable=1;locked=0;connectable=1;" vertex="1" parent="WIyWlLk6GJQsqaUBKTNV-1">
          <mxGeometry x="-56.75" y="230" width="114.5" height="60" as="geometry" />
        </mxCell>
        <mxCell id="VRKwHfjSi7or-xDMxhOe-145" value="PlaylistPage" style="swimlane;fontStyle=2;align=center;verticalAlign=top;childLayout=stackLayout;horizontal=1;startSize=26;horizontalStack=0;resizeParent=1;resizeLast=0;collapsible=1;marginBottom=0;rounded=0;shadow=0;strokeWidth=1;swimlaneFillColor=default;movable=1;resizable=1;rotatable=1;deletable=1;editable=1;locked=0;connectable=1;" vertex="1" parent="WIyWlLk6GJQsqaUBKTNV-1">
          <mxGeometry x="130" y="230" width="120" height="140" as="geometry">
            <mxRectangle x="230" y="140" width="160" height="26" as="alternateBounds" />
          </mxGeometry>
        </mxCell>
        <mxCell id="VRKwHfjSi7or-xDMxhOe-146" value="Props:" style="text;align=left;verticalAlign=top;spacingLeft=4;spacingRight=4;overflow=hidden;rotatable=1;points=[[0,0.5],[1,0.5]];portConstraint=eastwest;movable=1;resizable=1;deletable=1;editable=1;locked=0;connectable=1;" vertex="1" parent="VRKwHfjSi7or-xDMxhOe-145">
          <mxGeometry y="26" width="120" height="26" as="geometry" />
        </mxCell>
        <mxCell id="VRKwHfjSi7or-xDMxhOe-147" value="    songs" style="text;align=left;verticalAlign=top;spacingLeft=4;spacingRight=4;overflow=hidden;rotatable=1;points=[[0,0.5],[1,0.5]];portConstraint=eastwest;rounded=0;shadow=0;html=0;movable=1;resizable=1;deletable=1;editable=1;locked=0;connectable=1;" vertex="1" parent="VRKwHfjSi7or-xDMxhOe-145">
          <mxGeometry y="52" width="120" height="26" as="geometry" />
        </mxCell>
        <mxCell id="VRKwHfjSi7or-xDMxhOe-150" value="    name" style="text;align=left;verticalAlign=top;spacingLeft=4;spacingRight=4;overflow=hidden;rotatable=1;points=[[0,0.5],[1,0.5]];portConstraint=eastwest;rounded=0;shadow=0;html=0;movable=1;resizable=1;deletable=1;editable=1;locked=0;connectable=1;" vertex="1" parent="VRKwHfjSi7or-xDMxhOe-145">
          <mxGeometry y="78" width="120" height="26" as="geometry" />
        </mxCell>
        <mxCell id="VRKwHfjSi7or-xDMxhOe-148" value="" style="line;html=1;strokeWidth=1;align=left;verticalAlign=middle;spacingTop=-1;spacingLeft=3;spacingRight=3;rotatable=1;labelPosition=right;points=[];portConstraint=eastwest;movable=1;resizable=1;deletable=1;editable=1;locked=0;connectable=1;" vertex="1" parent="VRKwHfjSi7or-xDMxhOe-145">
          <mxGeometry y="104" width="120" height="8" as="geometry" />
        </mxCell>
        <mxCell id="VRKwHfjSi7or-xDMxhOe-149" value="render()" style="text;align=left;verticalAlign=top;spacingLeft=4;spacingRight=4;overflow=hidden;rotatable=1;points=[[0,0.5],[1,0.5]];portConstraint=eastwest;rounded=0;shadow=0;html=0;movable=1;resizable=1;deletable=1;editable=1;locked=0;connectable=1;" vertex="1" parent="VRKwHfjSi7or-xDMxhOe-145">
          <mxGeometry y="112" width="120" height="26" as="geometry" />
        </mxCell>
        <mxCell id="VRKwHfjSi7or-xDMxhOe-152" value="" style="endArrow=none;html=1;rounded=0;exitX=0.496;exitY=1.001;exitDx=0;exitDy=0;entryX=1;entryY=0.5;entryDx=0;entryDy=0;exitPerimeter=0;movable=1;resizable=1;rotatable=1;deletable=1;editable=1;locked=0;connectable=1;" edge="1" parent="WIyWlLk6GJQsqaUBKTNV-1" source="VRKwHfjSi7or-xDMxhOe-119" target="VRKwHfjSi7or-xDMxhOe-50">
          <mxGeometry width="50" height="50" relative="1" as="geometry">
            <mxPoint x="340" y="-4" as="sourcePoint" />
            <mxPoint x="260" y="-30" as="targetPoint" />
            <Array as="points">
              <mxPoint x="330" y="153" />
            </Array>
          </mxGeometry>
        </mxCell>
        <mxCell id="VRKwHfjSi7or-xDMxhOe-153" value="" style="endArrow=none;html=1;rounded=0;entryX=0.5;entryY=0;entryDx=0;entryDy=0;movable=1;resizable=1;rotatable=1;deletable=1;editable=1;locked=0;connectable=1;" edge="1" parent="WIyWlLk6GJQsqaUBKTNV-1" source="VRKwHfjSi7or-xDMxhOe-50" target="VRKwHfjSi7or-xDMxhOe-145">
          <mxGeometry width="50" height="50" relative="1" as="geometry">
            <mxPoint x="340" y="122" as="sourcePoint" />
            <mxPoint x="260" y="163" as="targetPoint" />
            <Array as="points" />
          </mxGeometry>
        </mxCell>
        <mxCell id="VRKwHfjSi7or-xDMxhOe-154" value="&lt;span style=&quot;&quot;&gt;Imports&lt;/span&gt;" style="endArrow=open;endSize=12;dashed=1;html=1;rounded=0;exitX=0.002;exitY=0.097;exitDx=0;exitDy=0;exitPerimeter=0;labelBackgroundColor=#CCE5FF;movable=1;resizable=1;rotatable=1;deletable=1;editable=1;locked=0;connectable=1;" edge="1" parent="WIyWlLk6GJQsqaUBKTNV-1" source="VRKwHfjSi7or-xDMxhOe-145">
          <mxGeometry width="160" relative="1" as="geometry">
            <mxPoint x="-110" y="350" as="sourcePoint" />
            <mxPoint x="60" y="330" as="targetPoint" />
            <Array as="points">
              <mxPoint x="90" y="244" />
              <mxPoint x="90" y="330" />
            </Array>
          </mxGeometry>
        </mxCell>
        <mxCell id="VRKwHfjSi7or-xDMxhOe-161" value="&lt;span style=&quot;&quot;&gt;Imports&lt;/span&gt;" style="endArrow=open;endSize=12;dashed=1;html=1;rounded=0;labelBackgroundColor=#CCE5FF;exitX=0.993;exitY=0.118;exitDx=0;exitDy=0;exitPerimeter=0;movable=1;resizable=1;rotatable=1;deletable=1;editable=1;locked=0;connectable=1;" edge="1" parent="WIyWlLk6GJQsqaUBKTNV-1" source="VRKwHfjSi7or-xDMxhOe-70">
          <mxGeometry x="0.0545" width="160" relative="1" as="geometry">
            <mxPoint x="-140" y="144" as="sourcePoint" />
            <mxPoint x="-60" y="330" as="targetPoint" />
            <Array as="points">
              <mxPoint x="-200" y="80" />
              <mxPoint x="-200" y="210" />
              <mxPoint x="-90" y="210" />
              <mxPoint x="-90" y="330" />
            </Array>
            <mxPoint as="offset" />
          </mxGeometry>
        </mxCell>
        <mxCell id="VRKwHfjSi7or-xDMxhOe-162" value="Obervable" style="swimlane;fontStyle=2;align=center;verticalAlign=top;childLayout=stackLayout;horizontal=1;startSize=26;horizontalStack=0;resizeParent=1;resizeLast=0;collapsible=1;marginBottom=0;rounded=0;shadow=0;strokeWidth=1;swimlaneFillColor=default;movable=1;resizable=1;rotatable=1;deletable=1;editable=1;locked=0;connectable=1;" vertex="1" parent="WIyWlLk6GJQsqaUBKTNV-1">
          <mxGeometry x="-355" y="-281" width="120" height="104" as="geometry">
            <mxRectangle x="230" y="140" width="160" height="26" as="alternateBounds" />
          </mxGeometry>
        </mxCell>
        <mxCell id="VRKwHfjSi7or-xDMxhOe-170" value="subscribe()" style="text;align=left;verticalAlign=top;spacingLeft=4;spacingRight=4;overflow=hidden;rotatable=1;points=[[0,0.5],[1,0.5]];portConstraint=eastwest;rounded=0;shadow=0;html=0;movable=1;resizable=1;deletable=1;editable=1;locked=0;connectable=1;" vertex="1" parent="VRKwHfjSi7or-xDMxhOe-162">
          <mxGeometry y="26" width="120" height="26" as="geometry" />
        </mxCell>
        <mxCell id="VRKwHfjSi7or-xDMxhOe-171" value="unsubscribe()" style="text;align=left;verticalAlign=top;spacingLeft=4;spacingRight=4;overflow=hidden;rotatable=1;points=[[0,0.5],[1,0.5]];portConstraint=eastwest;rounded=0;shadow=0;html=0;movable=1;resizable=1;deletable=1;editable=1;locked=0;connectable=1;" vertex="1" parent="VRKwHfjSi7or-xDMxhOe-162">
          <mxGeometry y="52" width="120" height="26" as="geometry" />
        </mxCell>
        <mxCell id="VRKwHfjSi7or-xDMxhOe-172" value="notify()" style="text;align=left;verticalAlign=top;spacingLeft=4;spacingRight=4;overflow=hidden;rotatable=1;points=[[0,0.5],[1,0.5]];portConstraint=eastwest;rounded=0;shadow=0;html=0;movable=1;resizable=1;deletable=1;editable=1;locked=0;connectable=1;" vertex="1" parent="VRKwHfjSi7or-xDMxhOe-162">
          <mxGeometry y="78" width="120" height="26" as="geometry" />
        </mxCell>
        <mxCell id="VRKwHfjSi7or-xDMxhOe-177" value="&lt;span style=&quot;font-size: 24px;&quot;&gt;&lt;b&gt;&lt;a href=&quot;https://www.patterns.dev/posts/observer-pattern&quot;&gt;Observer Pattern&lt;/a&gt;&lt;/b&gt;&lt;/span&gt;" style="text;strokeColor=none;align=center;fillColor=none;html=1;verticalAlign=middle;whiteSpace=wrap;rounded=0;movable=1;resizable=1;rotatable=1;deletable=1;editable=1;locked=0;connectable=1;" vertex="1" parent="WIyWlLk6GJQsqaUBKTNV-1">
          <mxGeometry x="-352.25" y="-360" width="114.5" height="60" as="geometry" />
        </mxCell>
        <mxCell id="VRKwHfjSi7or-xDMxhOe-178" value="" style="endArrow=none;html=1;rounded=0;exitX=1;exitY=0.5;exitDx=0;exitDy=0;entryX=0;entryY=0.5;entryDx=0;entryDy=0;movable=1;resizable=1;rotatable=1;deletable=1;editable=1;locked=0;connectable=1;" edge="1" parent="WIyWlLk6GJQsqaUBKTNV-1" source="VRKwHfjSi7or-xDMxhOe-172" target="VRKwHfjSi7or-xDMxhOe-32">
          <mxGeometry width="50" height="50" relative="1" as="geometry">
            <mxPoint x="-170" y="-40" as="sourcePoint" />
            <mxPoint x="-120" y="-90" as="targetPoint" />
            <Array as="points">
              <mxPoint x="40" y="-190" />
              <mxPoint x="40" y="-147" />
            </Array>
          </mxGeometry>
        </mxCell>
      </root>
    </mxGraphModel>
  </diagram>
</mxfile>
